<?xml version="1.0" standalone="no"?><!DOCTYPE svg PUBLIC "-//W3C//DTD SVG 1.1//EN" "http://www.w3.org/Graphics/SVG/1.1/DTD/svg11.dtd"><svg t="1643117777702" class="icon" viewBox="0 0 1024 1024" version="1.1" xmlns="http://www.w3.org/2000/svg" p-id="2712" xmlns:xlink="http://www.w3.org/1999/xlink" width="512" height="512"><defs><style type="text/css"></style></defs><path d="M774.9 235.1c133 133 156.4 333.1 68.2 483.7-16 27.3-7.2 79.1-30.5 102.4-19.9 19.9-69.9 10.9-92.7 25.5-151.8 96.7-359 75.8-495.7-60.8C67.1 628.6 63 377.9 215 225.8s402.8-147.9 559.9 9.3z" fill="#FFA943" p-id="2713"></path><path d="M512.3 921.3c-15.8 0-31.8-0.9-47.7-2.8-46.2-5.4-91-18.4-133.1-38.6-43.6-20.9-83.2-49-117.8-83.7-39.8-39.8-70.9-85.9-92.3-137.2-20.8-49.5-31.7-101.7-32.6-155-0.9-53.4 8.4-105.3 27.6-154.2 19.9-50.7 49.5-96 88.2-134.7 38.6-38.6 83.9-68.3 134.7-88.2 48.8-18.9 100.7-28.2 154-27.3 53.3 0.9 105.5 11.8 155 32.6 51.2 21.5 97.4 52.5 137.2 92.3 33.7 33.7 61.3 72.2 82 114.5 20 40.9 33.3 84.4 39.3 129.3 6 44.5 4.7 89.2-3.7 132.8-8.6 44.4-24.4 86.5-47.1 125.1-5.5 9.4-7.6 25-9.6 40-3.2 24-6.5 48.7-23.2 65.4-14.6 14.6-37.3 17.1-59.3 19.6-14 1.6-28.6 3.2-36 7.9-63.7 40.8-138.9 62.2-215.6 62.2z m-25.8-791.8c-95.3 0-189.6 35.5-260.9 106.9-70.7 70.7-108.7 165.6-107 267.3 1.7 101.9 42.9 198.3 116.2 271.6 76.2 76.2 177.8 115.9 278.7 115.9 69.2 0 138.2-18.7 198.4-57.1 13.2-8.4 31.3-10.5 48.7-12.4 16.1-1.8 34.3-3.8 41.5-11 9.5-9.5 12.2-29.2 14.7-48.3 2.4-18 4.9-36.6 13.4-51.1 87-148.4 59.9-339.8-65.9-465.6-77.1-77.3-178.1-116.2-277.8-116.2z" fill="#3F2D26" p-id="2714"></path><path d="M828.5 707.5c85-144.1 62.5-335.6-65.7-463-114.2-113.5-280.5-145.1-417-87.6 74.4-2.7 197.1-0.2 270.5 46.7C727 274.4 886.6 424 809 691.4c0 0-16.5 43-14 56.9 1.6 8.7 5.4 29.7 11.2 47.7 13.6-24.8 8.8-65.6 22.3-88.5z" fill="#E89131" p-id="2715"></path><path d="M817.8 816c-4.2 4.2-11.1 4.2-15.3 0l-601-601c-4.2-4.2-4.2-11.1 0-15.3 4.2-4.2 11.1-4.2 15.3 0l601 601c4.2 4.2 4.2 11.1 0 15.3z" fill="#3F2D26" p-id="2716"></path><path d="M810.1 827.1c-4.8 0-9.6-1.8-13.3-5.5l-601-601c-7.3-7.3-7.3-19.3 0-26.6 7.3-7.3 19.3-7.3 26.6 0l601 601c7.3 7.3 7.3 19.3 0 26.6-3.6 3.7-8.4 5.5-13.3 5.5zM209.2 204.4c-0.7 0-1.5 0.3-2 0.8-1.1 1.1-1.1 3 0 4.1l601 601c1.1 1.1 3 1.1 4.1 0 1.1-1.1 1.1-3 0-4.1l-601-601c-0.7-0.5-1.4-0.8-2.1-0.8z" fill="#3F2D26" p-id="2717"></path></svg>